Normalized EMG Linear Envelopes
nRows=32
nColumns=17

endheader
time	        VM	        VL	        RF	       GRA	        TA	   ADDLONG	   SEMIMEM	      BFLH	        GM	        GL	       TFL	   GLUTMAX	   GLUTMED	      PIRI	    OBTINT	        QF	
1.7925	  0.028459	  0.012768	  0.053167	  0.089836	  0.165210	  0.029131	  0.016211	  0.021409	  0.012584	  0.012779	  0.039842	  0.018120	  0.243827	  0.194399	  0.925194	  0.226818	
1.793	  0.028124	  0.012716	  0.052616	  0.087971	  0.164380	  0.028809	  0.015605	  0.020649	  0.012402	  0.012619	  0.038632	  0.018111	  0.242836	  0.194996	  0.935138	  0.226630	
1.7935	  0.027791	  0.012668	  0.052081	  0.086124	  0.163552	  0.028490	  0.015007	  0.019901	  0.012220	  0.012461	  0.037446	  0.018107	  0.241845	  0.195562	  0.945006	  0.226424	
1.794	  0.027459	  0.012622	  0.051561	  0.084297	  0.162727	  0.028173	  0.014416	  0.019163	  0.012039	  0.012304	  0.036286	  0.018109	  0.240857	  0.196098	  0.954794	  0.226201	
1.7945	  0.027128	  0.012579	  0.051056	  0.082489	  0.161904	  0.027859	  0.013834	  0.018437	  0.011859	  0.012150	  0.035151	  0.018115	  0.239872	  0.196602	  0.964497	  0.225962	
1.795	  0.026799	  0.012538	  0.050564	  0.080701	  0.161085	  0.027548	  0.013260	  0.017721	  0.011680	  0.011997	  0.034040	  0.018127	  0.238892	  0.197074	  0.974111	  0.225708	
1.7955	  0.026472	  0.012500	  0.050087	  0.078933	  0.160269	  0.027239	  0.012693	  0.017018	  0.011501	  0.011846	  0.032953	  0.018144	  0.237919	  0.197514	  0.983631	  0.225441	
1.796	  0.026146	  0.012463	  0.049622	  0.077185	  0.159457	  0.026931	  0.012136	  0.016326	  0.011323	  0.011697	  0.031891	  0.018166	  0.236953	  0.197923	  0.993049	  0.225162	
1.7965	  0.025822	  0.012429	  0.049169	  0.075458	  0.158650	  0.026626	  0.011587	  0.015646	  0.011146	  0.011549	  0.030853	  0.018193	  0.235997	  0.198299	  1.002363	  0.224872	
1.797	  0.025500	  0.012397	  0.048728	  0.073752	  0.157848	  0.026323	  0.011046	  0.014978	  0.010970	  0.011403	  0.029838	  0.018226	  0.235051	  0.198644	  1.011564	  0.224573	
1.7975	  0.025180	  0.012367	  0.048299	  0.072068	  0.157051	  0.026022	  0.010514	  0.014322	  0.010794	  0.011259	  0.028847	  0.018265	  0.234117	  0.198957	  1.020649	  0.224265	
1.798	  0.024862	  0.012338	  0.047879	  0.070405	  0.156259	  0.025722	  0.009991	  0.013678	  0.010619	  0.011117	  0.027879	  0.018309	  0.233195	  0.199238	  1.029610	  0.223951	
1.7985	  0.024547	  0.012312	  0.047470	  0.068764	  0.155474	  0.025425	  0.009478	  0.013047	  0.010445	  0.010977	  0.026933	  0.018359	  0.232288	  0.199487	  1.038443	  0.223631	
1.799	  0.024233	  0.012286	  0.047069	  0.067145	  0.154695	  0.025129	  0.008973	  0.012429	  0.010271	  0.010838	  0.026010	  0.018415	  0.231397	  0.199704	  1.047140	  0.223306	
1.7995	  0.023922	  0.012262	  0.046678	  0.065549	  0.153922	  0.024834	  0.008478	  0.011824	  0.010098	  0.010701	  0.025109	  0.018477	  0.230521	  0.199889	  1.055696	  0.222977	
1.8	  0.023613	  0.012239	  0.046294	  0.063975	  0.153157	  0.024542	  0.007992	  0.011231	  0.009925	  0.010566	  0.024231	  0.018545	  0.229663	  0.200042	  1.064104	  0.222646	
1.8005	  0.023306	  0.012218	  0.045918	  0.062424	  0.152399	  0.024251	  0.007516	  0.010651	  0.009753	  0.010433	  0.023373	  0.018619	  0.228822	  0.200163	  1.072357	  0.222313	
1.801	  0.023002	  0.012197	  0.045548	  0.060896	  0.151649	  0.023962	  0.007050	  0.010085	  0.009581	  0.010302	  0.022538	  0.018699	  0.228001	  0.200251	  1.080449	  0.221979	
1.8015	  0.022700	  0.012177	  0.045185	  0.059392	  0.150907	  0.023674	  0.006594	  0.009532	  0.009410	  0.010172	  0.021723	  0.018785	  0.227200	  0.200307	  1.088372	  0.221646	
1.802	  0.022401	  0.012158	  0.044828	  0.057911	  0.150173	  0.023389	  0.006147	  0.008993	  0.009239	  0.010045	  0.020929	  0.018878	  0.226419	  0.200331	  1.096118	  0.221315	
1.8025	  0.022104	  0.012139	  0.044476	  0.056453	  0.149446	  0.023104	  0.005711	  0.008467	  0.009068	  0.009919	  0.020155	  0.018977	  0.225659	  0.200322	  1.103680	  0.220986	
1.803	  0.021810	  0.012121	  0.044128	  0.055020	  0.148729	  0.022822	  0.005285	  0.007955	  0.008898	  0.009795	  0.019401	  0.019083	  0.224922	  0.200280	  1.111050	  0.220661	
1.8035	  0.021519	  0.012103	  0.043784	  0.053610	  0.148019	  0.022541	  0.004870	  0.007457	  0.008728	  0.009673	  0.018667	  0.019195	  0.224206	  0.200207	  1.118220	  0.220340	
1.804	  0.021230	  0.012086	  0.043444	  0.052224	  0.147318	  0.022262	  0.004465	  0.006974	  0.008559	  0.009552	  0.017953	  0.019314	  0.223514	  0.200101	  1.125181	  0.220026	
1.8045	  0.020944	  0.012068	  0.043107	  0.050863	  0.146626	  0.021984	  0.004070	  0.006504	  0.008390	  0.009434	  0.017257	  0.019440	  0.222845	  0.199963	  1.131925	  0.219719	
1.805	  0.020661	  0.012050	  0.042772	  0.049526	  0.145941	  0.021708	  0.003687	  0.006049	  0.008221	  0.009317	  0.016581	  0.019573	  0.222199	  0.199795	  1.138443	  0.219420	
1.8055	  0.020380	  0.012031	  0.042439	  0.048213	  0.145265	  0.021434	  0.003314	  0.005608	  0.008052	  0.009202	  0.015923	  0.019712	  0.221578	  0.199596	  1.144728	  0.219130	
1.806	  0.020103	  0.012013	  0.042107	  0.046924	  0.144597	  0.021162	  0.002953	  0.005182	  0.007884	  0.009089	  0.015283	  0.019859	  0.220981	  0.199367	  1.150771	  0.218851	
1.8065	  0.019828	  0.011993	  0.041776	  0.045660	  0.143937	  0.020891	  0.002603	  0.004771	  0.007716	  0.008977	  0.014661	  0.020012	  0.220409	  0.199109	  1.156565	  0.218582	
1.807	  0.019555	  0.011973	  0.041446	  0.044420	  0.143286	  0.020623	  0.002264	  0.004375	  0.007548	  0.008868	  0.014057	  0.020173	  0.219861	  0.198823	  1.162101	  0.218325	
1.8075	  0.019286	  0.011952	  0.041115	  0.043205	  0.142641	  0.020356	  0.001937	  0.003994	  0.007380	  0.008760	  0.013470	  0.020340	  0.219338	  0.198509	  1.167373	  0.218081	
1.808	  0.019020	  0.011930	  0.040785	  0.042014	  0.142004	  0.020091	  0.001622	  0.003628	  0.007213	  0.008653	  0.012900	  0.020515	  0.218841	  0.198169	  1.172371	  0.217851	
